<svg width="109" height="21" viewBox="0 0 109 21" fill="none" xmlns="http://www.w3.org/2000/svg">
<g clip-path="url(#clip0_1553_1121)">
<path fill-rule="evenodd" clip-rule="evenodd" d="M2.53448 5.62676L11.0185 0.640007C11.3946 0.419013 11.8614 0.562372 12.0559 0.958765L13.4507 3.80253H8.50844V14.713C8.50844 16.1708 8.8389 17.1875 9.50021 17.7638C10.0578 18.2497 10.9624 18.5303 12.2136 18.6067L9.64102 20.1187C9.26498 20.3397 8.79815 20.1964 8.60367 19.8L2.20363 6.74981C2.00915 6.35341 2.15803 5.84817 2.53408 5.62676H2.53448Z" fill="#0C9EBA"/>
<path fill-rule="evenodd" clip-rule="evenodd" d="M0.423831 5.47386L9.54092 0.114949C9.94521 -0.122887 10.4665 0.0196499 10.7001 0.431242L12.6118 3.80202H8.50801V14.7125C8.50801 16.1703 8.83846 17.187 9.49977 17.7633C10.0574 18.2492 10.9624 18.5298 12.2132 18.6062L8.95668 20.5204C8.55239 20.7582 8.03069 20.6157 7.79747 20.2041L0.113149 6.654C-0.120467 6.24241 0.0195411 5.71128 0.423831 5.47386Z" fill="#01BCDF"/>
<path d="M18.0073 17.8532H13.452C12.0059 17.8532 10.9907 17.5985 10.4061 17.0896C9.82182 16.5802 9.5293 15.6819 9.5293 14.3937V4.75085H18.0069V7.03268H12.0418V10.1061H16.2174L16.0367 12.3879H12.0418V14.2097C12.0418 14.7248 12.1564 15.0809 12.3851 15.2773C12.6143 15.4736 13.0299 15.5718 13.6323 15.5718H18.0065V17.8536L18.0073 17.8532ZM26.8101 17.8532H21.1883C20.5738 17.8532 20.1009 17.7213 19.7693 17.4576C19.438 17.1939 19.2722 16.8226 19.2722 16.3444C19.2722 15.8659 19.4711 15.3631 19.8685 14.8353L24.1705 9.40653H19.8685V7.34528H26.9904V9.16705L21.8569 15.792H26.8096V17.8528L26.8101 17.8532ZM36.4626 7.34528L32.5403 19.0309C32.3595 19.5583 32.1247 19.9695 31.8354 20.2636C31.3533 20.7545 30.6786 20.9997 29.8112 20.9997H28.7084V18.8464H29.4315C29.7688 18.8464 30.0189 18.7881 30.1816 18.6715C30.3442 18.5548 30.4858 18.3248 30.6064 17.9814L30.7872 17.4663L27.6783 7.34487H30.1549L31.9988 14.6504L33.9872 7.34487H36.4638L36.4626 7.34528Z" fill="#01BCDF"/>
<path d="M39.0477 3.33374C39.6142 3.33374 39.9817 3.42247 40.1504 3.60033C40.3191 3.77819 40.4034 4.15241 40.4034 4.72297C40.4034 5.29353 40.3162 5.66774 40.1415 5.8456C39.9668 6.02346 39.5992 6.1126 39.0388 6.1126C38.4784 6.1126 38.1108 6.02059 37.9361 5.83656C37.7614 5.65254 37.6738 5.27833 37.6738 4.71393C37.6738 4.14953 37.7614 3.7786 37.9361 3.60074C38.1108 3.42288 38.4812 3.33415 39.0477 3.33415V3.33374ZM40.2045 17.8532H37.8546V7.73186H40.2045V17.8532ZM50.833 17.8532H48.4831V11.1363C48.4831 10.535 48.3625 10.1242 48.1216 9.90319C47.8807 9.6822 47.543 9.57211 47.1093 9.57211L44.9942 10.4738V17.8532H42.6443V7.34532H44.3979L44.9401 8.59653L47.8323 7.23483C48.6397 7.23483 49.3417 7.53839 49.9381 8.14592C50.5344 8.75303 50.833 9.63948 50.833 10.8048V17.8528V17.8532ZM60.7026 7.34532L57.25 17.8532H55.4061L51.9353 7.34532H54.4119L56.328 14.1908L58.226 7.34532H60.7026ZM67.68 13.1051V12.1481C67.68 11.2402 67.5505 10.5473 67.2915 10.0687C67.0324 9.59018 66.493 9.35112 65.6735 9.35112C64.3481 9.35112 63.6851 10.2589 63.6851 12.0745V13.0316C63.6851 14.9824 64.3481 15.9575 65.6735 15.9575C66.5293 15.9575 67.0893 15.6326 67.3544 14.9824C67.5715 14.4673 67.68 13.8412 67.68 13.1051ZM70.0299 12.5531C70.0299 14.8226 69.6083 16.3441 68.7646 17.1167C68.0536 17.7793 67.0232 18.1104 65.6735 18.1104C63.9502 18.1104 62.7874 17.5953 62.185 16.5647C61.6185 15.6199 61.3357 14.2828 61.3357 12.5531C61.3357 10.9338 61.6189 9.66412 62.185 8.744C62.8116 7.71337 63.9535 7.19827 65.6106 7.19827C67.2677 7.19827 68.4184 7.64929 69.0632 8.55094C69.7079 9.45258 70.0303 10.7868 70.0303 12.5535L70.0299 12.5531ZM73.1028 3.33374C73.6693 3.33374 74.0369 3.42247 74.2055 3.60033C74.3742 3.77819 74.4585 4.15241 74.4585 4.72297C74.4585 5.29353 74.3714 5.66774 74.1967 5.8456C74.022 6.02346 73.6544 6.1126 73.094 6.1126C72.5335 6.1126 72.1659 6.02059 71.9912 5.83656C71.8165 5.65254 71.729 5.27833 71.729 4.71393C71.729 4.14953 71.8165 3.7786 71.9912 3.60074C72.1659 3.42288 72.5363 3.33415 73.1028 3.33415V3.33374ZM74.2596 17.8532H71.9097V7.73186H74.2596V17.8532ZM82.1586 14.0072L84.2914 13.9887C84.2793 14.0869 84.2672 14.2648 84.2555 14.5223C84.2434 14.7799 84.2345 14.9548 84.2285 15.0469C84.2224 15.1389 84.2075 15.2831 84.1833 15.4794C84.1591 15.6757 84.132 15.8199 84.1018 15.9119C84.0715 16.004 84.0324 16.1235 83.9843 16.271C83.7673 16.9089 83.177 17.4121 82.2131 17.7801C81.5985 18.0011 80.9566 18.1112 80.288 18.1112C79.6191 18.1112 79.0138 18.0007 78.4716 17.7801C77.9293 17.5591 77.5016 17.2769 77.1881 16.9335C76.4771 16.1728 76.1217 14.7466 76.1217 12.6549C76.1217 10.5633 76.4771 9.1371 77.1881 8.37636C77.5016 8.03295 77.9293 7.75075 78.4716 7.52976C79.0138 7.30877 79.6162 7.19827 80.2792 7.19827C81.5808 7.19827 82.5689 7.52976 83.2436 8.19192C83.9186 8.85449 84.2559 9.77462 84.2559 10.9523H82.1231C82.1231 10.4125 81.9907 10.0108 81.7257 9.7471C81.4606 9.48338 80.9695 9.35153 80.2525 9.35153C79.5355 9.35153 79.0594 9.57827 78.8246 10.0326C78.5898 10.4865 78.472 11.1675 78.472 12.0753V13.0324C78.472 14.4923 78.7492 15.3878 79.3035 15.7193C79.5565 15.8787 79.8878 15.9584 80.2977 15.9584C80.7073 15.9584 81.0418 15.9185 81.3008 15.8388C81.5598 15.7591 81.7466 15.6211 81.8612 15.4248C81.9758 15.2284 82.0513 15.0354 82.0872 14.8452C82.1235 14.655 82.1477 14.3761 82.1594 14.008L82.1586 14.0072ZM87.4547 3.33374C88.0212 3.33374 88.3888 3.42247 88.5574 3.60033C88.7261 3.77819 88.8104 4.15241 88.8104 4.72297C88.8104 5.29353 88.7233 5.66774 88.5485 5.8456C88.3738 6.02346 88.0063 6.1126 87.4458 6.1126C86.8854 6.1126 86.5178 6.02059 86.3431 5.83656C86.1684 5.65254 86.0808 5.27833 86.0808 4.71393C86.0808 4.14953 86.1684 3.7786 86.3431 3.60074C86.5178 3.42288 86.8882 3.33415 87.4547 3.33415V3.33374ZM88.6115 17.8532H86.2616V7.73186H88.6115V17.8532ZM99.24 17.8532H96.8901V11.1363C96.8901 10.535 96.7695 10.1242 96.5286 9.90319C96.2878 9.6822 95.95 9.57211 95.5163 9.57211L93.4012 10.4738V17.8532H91.0514V7.34532H92.8049L93.3472 8.59653L96.2393 7.23483C97.0467 7.23483 97.7487 7.53839 98.3451 8.14592C98.9414 8.75303 99.24 9.63948 99.24 10.8048V17.8528V17.8532ZM106.651 7.41926L109.001 7.27221V17.3751C109.001 18.5405 108.679 19.4331 108.034 20.0525C107.389 20.6719 106.434 20.9821 105.169 20.9821C104.193 20.9821 103.337 20.7857 102.602 20.393C102.217 20.1967 101.909 19.9022 101.68 19.5099C101.451 19.1172 101.337 18.651 101.337 18.1112L103.524 18.0007C103.524 18.3441 103.645 18.5898 103.886 18.7368C104.127 18.8839 104.539 18.9578 105.124 18.9578C105.708 18.9578 106.106 18.8107 106.317 18.5162C106.528 18.2217 106.633 17.7986 106.633 17.2465L106.724 15.6638L104.193 17.044C102.807 17.044 101.874 16.5655 101.391 15.6088C100.958 14.7622 100.741 13.7258 100.741 12.4988C100.741 11.039 100.849 10.0083 101.066 9.40739C101.295 8.74482 101.621 8.26627 102.042 7.97175C102.584 7.6037 103.295 7.41967 104.175 7.41967H106.651V7.41926ZM106.651 13.5841V9.57252H104.862C104.187 9.57252 103.723 9.80584 103.47 10.2717C103.217 10.7379 103.09 11.3881 103.09 12.2224C103.09 13.0567 103.22 13.6486 103.479 13.9982C103.738 14.3477 104.199 14.5227 104.861 14.5227L106.651 13.5841H106.651Z" fill="#39C3E0"/>
</g>
<defs>
<clipPath id="clip0_1553_1121">
<rect width="109" height="21" fill="white"/>
</clipPath>
</defs>
</svg>
